<svg width="78" height="52" viewBox="0 0 78 52" fill="none" xmlns="http://www.w3.org/2000/svg">
<path d="M6.2438 51.7988C2.10109 51.7988 0 48.9957 0 43.4666V31.6203H4.55415V44.2112C4.55415 47.283 5.51841 47.6375 6.2438 47.6375C6.96919 47.6375 7.93345 47.283 7.93345 44.2112V34.9541C7.93345 32.0412 7.6585 31.1743 6.09365 29.1582L3.35785 25.6441C1.45565 23.1801 0 20.9289 0 16.3043V8.33131C0 1.44587 3.54407 0 6.51777 0C10.6732 0 12.6923 2.72605 12.6923 8.33228V19.3001H8.20742V7.58767C8.20742 4.51581 7.24316 4.16132 6.51777 4.16132C5.68221 4.16132 4.82812 4.56879 4.82812 7.58767V16.0346C4.82812 18.9167 5.31464 20.0254 6.87656 22.1041L9.54704 25.7569C11.6842 28.6187 12.6933 30.4798 12.6933 35.1564V43.4666C12.6933 50.353 9.18533 51.7988 6.2438 51.7988Z" fill="#111111"/>
<path d="M25.4338 51.2584L21.1507 26.8463H21.0142L21.3769 51.2584H16.5488V0.540395H21.3769L21.0142 24.2773H21.1507L25.504 0.540395H30.4871L24.9824 25.2251L30.4823 51.2594H25.4348L25.4338 51.2584Z" fill="#111111"/>
<path d="M33.2382 51.2584V0.540395H44.2858V4.8385H38.1989V23.5144H43.6013V27.8115H38.1989V46.9613H44.2858V51.2584H33.2382Z" fill="#111111"/>
<path d="M56.3987 51.2584L51.4458 14.9528H51.3083L51.671 51.2584H47.5273V0.540395H52.8575L56.7809 32.048H56.9174L56.5556 0.540395H60.6993V51.2584H56.3987Z" fill="#111111"/>
<path d="M65.0331 51.2584V0.540395H71.4144C75.6605 0.540395 78.0004 3.47548 78.0004 8.80428V42.9936C78.0004 48.3224 75.6615 51.2575 71.4144 51.2575L65.0331 51.2584ZM71.4134 47.0278C72.2003 47.0278 73.1031 46.6386 73.1031 43.6014V8.19549C73.1031 5.15831 72.2003 4.76915 71.4134 4.76915H69.8603V47.0278H71.4134Z" fill="#111111"/>
</svg>
